<?xml version="1.0" encoding="utf-8"?>
<!-- Generator: Adobe Illustrator 15.1.0, SVG Export Plug-In . SVG Version: 6.00 Build 0)  -->
<!DOCTYPE svg PUBLIC "-//W3C//DTD SVG 1.1//EN" "http://www.w3.org/Graphics/SVG/1.1/DTD/svg11.dtd">
<svg version="1.1" id="Layer_1" xmlns="http://www.w3.org/2000/svg" xmlns:xlink="http://www.w3.org/1999/xlink" x="0px" y="0px"
	 width="512px" height="512px" viewBox="0 0 512 512" enable-background="new 0 0 512 512" xml:space="preserve">
	 <g >
	<path d="M354.12,239.066c-4.677,2.518-5.937,3.957-3.777,3.957l4.677-0.54c25.815-7.285,42.994-12.412,51.359-15.739
	c5.216-2.161,7.915-1.619,7.825,1.527l-1.619,5.218c-26.624,50.009-45.242,82.3-55.677,97.05
	c-10.434,14.573-17.719,24.557-22.037,29.774c-4.316,5.218-8.364,9.624-12.321,13.222c-3.597,3.598-6.026,5.126-7.286,4.587
	c-0.99-0.45-0.898-4.317,0.359-11.333c1.26-7.017,3.328-27.974,5.937-62.422c2.788-34.45,3.418-51.988,2.339-52.35
	c-0.72-0.18-1.259-0.359-1.979-0.18c-12.773,8.635-24.016,11.424-33.551,8.725c-3.147-0.988-6.026-2.607-8.904-5.126
	c-0.629-0.45-1.078-0.899-1.709-1.529c-0.629-0.63-1.08-1.079-1.529-1.708c-2.518-2.879-4.137-5.758-5.126-8.906
	c-2.698-9.534,0.091-20.776,8.724-33.55c0.181-0.72,0.002-1.259-0.178-1.978c-0.361-1.08-17.9-0.45-52.351,2.338
	c-34.448,2.609-55.315,4.767-62.421,5.937c-7.016,1.258-10.793,1.438-11.423,0.269c-0.359-1.079,1.169-3.508,4.587-7.286
	c3.688-3.867,8.005-8.005,13.311-12.232c5.309-4.228,15.201-11.604,29.864-21.948c14.661-10.524,46.951-29.142,96.96-55.765
	l5.218-1.62c3.147-0.09,3.597,2.518,1.527,7.826c-3.327,8.365-8.454,25.544-15.739,51.359l-0.539,4.677
	c0,2.159,1.438,0.899,3.957-3.778c7.465-17.539,15.56-35.349,24.375-53.697c16.858-35.122,33.459-64.326,49.971-87.786
	C333.379,20.641,295.748,12,256,12C114.615,12,0,121.328,0,256.189c0,134.862,114.615,244.189,256,244.189
	c141.385,0,256-109.327,256-244.189c0-31.896-6.415-62.364-18.075-90.295c-23.171,16.125-51.817,32.338-86.106,48.797
	C389.469,223.505,371.658,231.601,354.12,239.066z M274.158,298.52c0.09,2.969-0.18,6.297-0.719,9.714
	c-1.799,10.794-6.297,21.228-13.583,31.571c-22.576,31.932-67.009,54.777-133.299,68.539c-1.259,0.181-2.518,0.539-3.868,0.81
	c0,0,0.09-0.091,0-0.18c-0.089-0.09-0.179,0-0.179,0c0.27-1.351,0.629-2.609,0.809-3.868
	c13.762-66.289,36.608-110.723,68.539-133.299c10.344-7.285,20.778-11.784,31.571-13.582c3.417-0.54,6.745-0.809,9.714-0.72
	c-1.44-0.359-0.27-0.27,3.597,0.181c0.81,0.089,1.26,0.719,1.26,1.798c0.089,0.989-3.599,4.138-10.705,9.444
	c-7.104,5.307-14.121,13.941-21.137,25.635c-7.016,11.873-10.703,19.697-11.063,23.656c-0.269,3.867,3.148,2.609,10.524-3.689
	c7.286-6.205,13.491-10.793,18.529-13.851c4.947-3.147,8.275-4.677,9.983-5.126c1.62-0.361,2.249-0.45,2.249-0.271
	c0.179,0,0.091,0.63-0.271,2.249c-0.449,1.707-1.978,5.037-5.126,9.983c-3.058,5.037-7.646,11.243-13.851,18.528
	c-6.298,7.377-7.556,10.794-3.688,10.524c3.958-0.359,11.783-4.048,23.655-11.063c11.693-7.016,20.328-14.031,25.634-21.137
	c5.307-7.105,8.457-10.793,9.445-10.705c1.08,0,1.709,0.451,1.799,1.26C274.428,298.789,274.518,299.959,274.158,298.52z"/>
<path d="M382.479,152.26c21.938,21.938,57.503,21.936,79.44-0.001c6.364-6.364,10.862-13.88,13.532-21.874
	c-2.749-4.354-5.636-8.621-8.656-12.792c-1.229,9.309-5.399,18.303-12.552,25.455c-17.274,17.274-45.278,17.278-62.554,0.002
	c-17.275-17.274-17.273-45.281,0.002-62.556c7.579-7.58,17.228-11.821,27.13-12.748c-4.015-3.16-8.133-6.204-12.348-9.129
	c-8.784,2.553-17.069,7.277-23.995,14.202C360.541,94.756,360.541,130.323,382.479,152.26z"/>
<path d="M399.942,90.282c-12.293,12.293-12.295,32.222-0.002,44.516c12.293,12.292,32.224,12.292,44.518-0.001
	c10.814-10.814,12.09-27.528,3.872-39.765c-2.499-2.711-5.06-5.37-7.681-7.972C428.343,78.125,411.037,79.187,399.942,90.282z"/>
	</g>
</svg>
