<?xml version="1.0" encoding="iso-8859-1"?>
<!DOCTYPE svg PUBLIC "-//W3C//DTD SVG 1.1//EN" "http://www.w3.org/Graphics/SVG/1.1/DTD/svg11.dtd">
<svg 
 version="1.1" xmlns="http://www.w3.org/2000/svg" xmlns:xlink="http://www.w3.org/1999/xlink" x="0px" y="0px" width="512px"
	 height="512px" viewBox="0 0 512 512" enable-background="new 0 0 512 512" xml:space="preserve"
><g id="5151e0c8492e5103c096af88a526ea6b"><g></g><g fill="#1e4072"><path display="inline" d="M155.262,320.106c-35.403,35.408-92.801,35.408-128.209,0c-35.403-35.408-35.403-92.807,0-128.205
		c35.408-35.408,92.807-35.408,128.209,0C190.665,227.299,190.665,284.698,155.262,320.106z M320.101,155.263
		c35.408-35.397,35.408-92.807,0-128.205c-35.403-35.408-92.802-35.408-128.205,0c-35.408,35.397-35.408,92.807,0,128.205
		C227.298,190.671,284.697,190.671,320.101,155.263z M191.896,356.734c-35.408,35.409-35.408,92.808,0,128.216
		c35.403,35.397,92.802,35.397,128.205,0c35.408-35.408,35.408-92.807,0-128.216C284.697,321.338,227.298,321.338,191.896,356.734z
		 M484.944,191.902c-35.403-35.408-92.808-35.408-128.21,0c-35.403,35.397-35.403,92.796,0,128.205
		c35.402,35.408,92.807,35.408,128.21,0C520.353,284.698,520.353,227.299,484.944,191.902z"></path></g></g></svg>