<?xml version="1.0" encoding="iso-8859-1"?>
<!DOCTYPE svg PUBLIC "-//W3C//DTD SVG 1.1//EN" "http://www.w3.org/Graphics/SVG/1.1/DTD/svg11.dtd">
<svg 
 version="1.1" xmlns="http://www.w3.org/2000/svg" xmlns:xlink="http://www.w3.org/1999/xlink" x="0px" y="0px" width="512px"
	 height="512px" viewBox="0 0 512 512" style="enable-background:new 0 0 512 512;" xml:space="preserve"
><g id="afcae5a789ccd549f9c6e2a2f81701bb"><g></g><g fill="#c1d4f1"><path style="display: inline;" d="M476.146,383.938L438.27,32.254C436.385,14.786,420.479,0.5,402.913,0.5H109.086
		c-17.566,0-33.471,14.286-35.355,31.754L35.854,383.938c-1.876,17.467,10.956,31.75,28.522,31.75h383.249
		C465.19,415.688,478.022,401.404,476.146,383.938z M454.923,393.556c-1.214,1.355-3.469,2.969-7.299,2.969H64.375
		c-3.83,0-6.085-1.613-7.298-2.969s-2.582-3.766-2.169-7.569l37.877-351.68c0.835-7.798,8.46-14.641,16.301-14.641h293.827
		c7.841,0,15.467,6.843,16.301,14.641l37.878,351.68C457.505,389.79,456.137,392.2,454.923,393.556z M447.624,433.267H64.375
		c-8.116,0-15.939-1.459-22.85-4.093l16.584,59.764c3.443,12.406,20.639,22.563,38.205,22.563h319.371
		c17.566,0,34.762-10.156,38.204-22.563l16.585-59.764C463.563,431.808,455.74,433.267,447.624,433.267z M112.279,486.304
		c-8.817,0-15.965-7.147-15.965-15.965c0-8.821,7.147-15.974,15.965-15.974c8.822,0,15.974,7.152,15.974,15.974
		C128.253,479.156,121.101,486.304,112.279,486.304z M176.157,486.304c-8.822,0-15.969-7.147-15.969-15.965
		c0-8.821,7.147-15.974,15.969-15.974s15.965,7.152,15.965,15.974C192.123,479.156,184.979,486.304,176.157,486.304z
		 M365.846,178.396l44.801,43.863h-29.353c-1.928,12.991-6.493,25.372-13.306,36.702c-6.911,11.499-16.116,21.869-27.18,30.618
		c-11.184,8.848-24.223,16-38.617,20.957c-14.48,4.987-30.252,7.72-46.764,7.72c-13.999,0-27.472-1.958-40.076-5.603
		c-12.544-3.623-24.176-8.895-34.594-15.505c-10.332-6.558-19.425-14.398-27.012-23.237c-7.505-8.74-13.512-18.418-17.772-28.759
		h28.2l0.09-1.566c4.036,7.174,9.179,13.844,15.259,19.813c6.128,6.02,13.202,11.321,21.039,15.72
		c7.884,4.424,16.529,7.935,25.733,10.336c9.239,2.41,19.016,3.701,29.142,3.701c12.492,0,24.455-1.979,35.515-5.586
		c11.012-3.589,21.077-8.796,29.856-15.268c8.701-6.412,16.103-14.055,21.886-22.571c5.724-8.426,9.846-17.687,12.093-27.472
		h-27.201L365.846,178.396 M255.505,97.93c12.08,0,23.75,1.468,34.8,4.205c11.085,2.745,21.581,6.786,31.237,11.92
		c9.729,5.172,18.633,11.464,26.452,18.706c7.893,7.307,14.696,15.604,20.118,24.671h-27.55
		c-4.601-6.154-10.048-11.761-16.176-16.706c-6.085-4.901-12.85-9.157-20.14-12.651c-7.255-3.477-15.044-6.196-23.22-8.047
		c-8.15-1.851-16.71-2.836-25.532-2.836c-11.115,0-21.809,1.563-31.806,4.445c-10.043,2.892-19.416,7.126-27.82,12.458
		c-8.469,5.375-15.982,11.89-22.213,19.291c-6.296,7.483-11.305,15.905-14.666,25.011h27.502l-43.609,43.863l-37.051-43.863h27.459
		c3.86-12.04,9.988-23.16,17.872-33.031c7.78-9.738,17.294-18.28,28.083-25.329c10.681-6.98,22.657-12.514,35.506-16.301
		C227.534,99.974,241.249,97.93,255.505,97.93"></path></g></g></svg>