<?xml version="1.0" encoding="iso-8859-1"?>
<!DOCTYPE svg PUBLIC "-//W3C//DTD SVG 1.1//EN" "http://www.w3.org/Graphics/SVG/1.1/DTD/svg11.dtd">
<svg 
 version="1.1" xmlns="http://www.w3.org/2000/svg" xmlns:xlink="http://www.w3.org/1999/xlink" x="0px" y="0px" width="512px"
	 height="512px" viewBox="0 0 512 512" style="enable-background:new 0 0 512 512;" xml:space="preserve"
><g id="afcae5a789ccd549f9c6e2a2f816228f"><g></g><g fill="#c1d4f1"><path style="display: inline;" d="M256,80.078L431.923,256L256,431.923L80.078,256L256,80.078z M359.46,387.105l41.465,41.465
		l-27.646,27.643l-41.461-41.465l1.887-1.887l-29.532,29.532l41.464,41.461L317.995,511.5l-41.464-41.465l-5.868,5.868
		c-8.067,8.063-21.259,8.063-29.326,0l-5.867-5.868L194.005,511.5l-27.642-27.642l41.465-41.465l-30.022-30.022l2.376,2.377
		l-41.46,41.465l-27.646-27.643l41.465-41.465l-82.93-82.932l-41.464,41.468L0.5,317.995l41.465-41.466l-5.868-5.868
		c-8.063-8.065-8.063-21.256,0-29.322l61.155-61.158l-41.465-41.462l27.642-27.644l41.466,41.464l27.644-27.644l-41.464-41.464
		l27.638-27.64l41.468,41.462l27.645-27.645l-41.463-41.463l27.642-27.644l41.466,41.462l5.866-5.867
		c8.067-8.063,21.259-8.063,29.326,0l5.867,5.868L317.995,0.5l27.646,27.644l-41.468,41.464l27.646,27.647l41.463-41.467
		l27.642,27.646l-41.465,41.46l27.646,27.648l41.464-41.467l27.643,27.644l-41.465,41.462l27.646,27.648l41.461-41.467
		l27.646,27.644l-41.465,41.462l5.868,5.87c8.063,8.065,8.063,21.256,0,29.322L359.46,387.105z M270.663,446.581l175.918-175.92
		c8.063-8.065,8.063-21.256,0-29.322L270.663,65.419c-8.067-8.063-21.259-8.063-29.326,0L65.419,241.339
		c-8.063,8.065-8.063,21.256,0,29.322l175.918,175.92C249.404,454.645,262.596,454.645,270.663,446.581z M69.606,207.83
		l-41.465-41.467L0.5,194.007l41.465,41.462L69.606,207.83z M442.394,304.173l41.461,41.469l27.646-27.646l-41.465-41.465
		L442.394,304.173z M387.106,359.46l41.464,41.465l27.643-27.642l-41.465-41.465L387.106,359.46z M97.252,331.818l-41.46,41.469
		l27.638,27.638l41.469-41.461L97.252,331.818z"></path></g></g></svg>