<?xml version="1.0" encoding="iso-8859-1"?>
<!DOCTYPE svg PUBLIC "-//W3C//DTD SVG 1.1//EN" "http://www.w3.org/Graphics/SVG/1.1/DTD/svg11.dtd">
<svg 
 version="1.1" xmlns="http://www.w3.org/2000/svg" xmlns:xlink="http://www.w3.org/1999/xlink" x="0px" y="0px" width="512px"
	 height="512px" viewBox="0 0 512 512" style="enable-background:new 0 0 512 512;" xml:space="preserve"
><g id="afcae5a789ccd549f9c6e2a2f8163f0b"><g></g><g fill="#c1d4f1"><path style="display: inline;" d="M466.245,368.316c2.232-1.801,4.399-3.729,6.471-5.801c22.114-22.119,28.876-53.753,20.335-81.724
		l12.517-12.509c7.91-7.913,7.91-20.859,0-28.776l-29.741-29.734c-7.91-7.914-20.859-7.914-28.769,0l-12.95,12.95
		c-0.69,0.686-1.239,1.456-1.805,2.212c-4.641-1.006-9.336-1.58-14.06-1.771l-64.703-64.705l-64.702-64.703
		c-0.195-4.724-0.77-9.421-1.771-14.058c0.757-0.57,1.526-1.117,2.212-1.805l12.946-12.95c7.913-7.912,7.913-20.861,0-28.773
		L272.491,6.438c-7.914-7.916-20.859-7.916-28.773,0l-12.513,12.511c-27.971-8.54-59.604-1.78-81.724,20.337
		c-2.07,2.073-3.992,4.235-5.797,6.466C119.89,64.628,32.461,134.246,14.962,151.747c-32.611,32.609,0.121,60.305,0.121,60.305
		s24.423,22.814,48.318,18.822c12.172-2.029,59.321-20.942,91.637-34.271c-1.297,14.659,3.602,29.763,14.83,40.991
		c16.28,16.28,40.741,19.379,60.152,9.314l17.537,17.537l17.532,17.536c-10.059,19.412-6.962,43.873,9.323,60.153
		c11.22,11.224,26.323,16.127,40.986,14.825c-13.332,32.315-32.245,79.469-34.274,91.637c-3.992,23.899,18.821,48.322,18.821,48.322
		s27.696,32.728,60.307,0.116C377.751,479.536,447.373,392.107,466.245,368.316z M230.773,65.422l14.385,14.389l-14.385,14.386
		h-14.389V79.811L230.773,65.422z M191.205,90.6l-14.384-14.386l14.384-14.386l14.385,14.386V90.6H191.205z M194.802,130.165
		l-14.389-14.387l14.389-14.386h14.388v14.386L194.802,130.165z M219.978,119.375v-14.386h14.388l14.389,14.386l-14.389,14.387
		L219.978,119.375z M183.292,228c-11.919-11.923-11.919-31.243,0-43.162c11.918-11.918,31.242-11.918,43.161,0
		c11.922,11.918,11.922,31.239,0,43.162C214.534,239.914,195.209,239.914,183.292,228z M302.707,238.067l-14.389-14.388
		l-14.389-14.384l14.389-14.384l14.389,14.384l14.384,14.384L302.707,238.067z M432.19,266.845l14.385,14.384l-14.385,14.389
		h-14.389v-14.389L432.19,266.845z M284.002,328.707c-11.919-11.919-11.919-31.239,0-43.157c11.918-11.923,31.243-11.923,43.161,0
		c11.918,11.918,11.918,31.238,0,43.157C315.245,340.625,295.92,340.625,284.002,328.707z M378.233,277.632l14.393-14.385
		l14.385,14.385v14.389h-14.385L378.233,277.632z M396.224,331.585l-14.389-14.389l14.389-14.385h14.384v14.385L396.224,331.585z
		 M435.788,335.182l-14.389-14.385v-14.388h14.389l14.384,14.388L435.788,335.182z"></path></g></g></svg>