<?xml version="1.0" encoding="iso-8859-1"?>
<!DOCTYPE svg PUBLIC "-//W3C//DTD SVG 1.1//EN" "http://www.w3.org/Graphics/SVG/1.1/DTD/svg11.dtd">
<svg 
 version="1.1" xmlns="http://www.w3.org/2000/svg" xmlns:xlink="http://www.w3.org/1999/xlink" x="0px" y="0px" width="512px"
	 height="512px" viewBox="0 0 512 512" style="enable-background:new 0 0 512 512;" xml:space="preserve"
><g id="afcae5a789ccd549f9c6e2a2f8161781"><g></g><g fill="#c1d4f1"><path style="display: inline;" d="M326.979,71.469l113.553,113.563L199.219,426.333L85.667,312.781L326.979,71.469z
		 M440.531,241.813l-28.396,28.385l42.583,42.584l-28.386,28.386l-42.583-42.584l-28.391,28.391l41.588,41.579l-28.395,28.395
		l-41.579-41.588l-28.391,28.391l42.584,42.583l-28.386,28.396l-42.584-42.583l-28.395,28.386l42.583,42.583L256,511.5
		l-42.583-42.583c-7.808,7.808-20.587,7.808-28.385,0L43.083,326.979c-7.809-7.808-7.809-20.587,0-28.396L0.5,256l28.391-28.386
		l42.578,42.583l28.39-28.39l-41.578-41.579l28.385-28.395l41.583,41.583l28.386-28.385l-42.583-42.583l28.396-28.396l42.583,42.583
		l28.385-28.386l-42.583-42.583l28.385-28.385l42.583,42.583l28.395-28.395l-42.583-42.578L256,0.5l42.583,42.583l14.198-14.193
		c7.798-7.804,20.577-7.804,28.386,0l141.947,141.943c7.799,7.808,7.799,20.587,0,28.395l-14.193,14.191L511.5,256l-28.386,28.396
		L440.531,241.813z M454.719,199.229c7.809-7.808,7.809-20.587,0-28.395L341.167,57.281c-7.809-7.809-20.588-7.809-28.386,0
		L71.469,298.583c-7.808,7.809-7.808,20.588,0,28.396l113.563,113.553c7.798,7.808,20.577,7.808,28.385,0L454.719,199.229z"></path></g></g></svg>