<?xml version="1.0" encoding="iso-8859-1"?>
<!DOCTYPE svg PUBLIC "-//W3C//DTD SVG 1.1//EN" "http://www.w3.org/Graphics/SVG/1.1/DTD/svg11.dtd">
<svg 
 version="1.1" xmlns="http://www.w3.org/2000/svg" xmlns:xlink="http://www.w3.org/1999/xlink" x="0px" y="0px" width="512px"
	 height="512px" viewBox="0 0 512 512" style="enable-background:new 0 0 512 512;" xml:space="preserve"
><g id="afcae5a789ccd549f9c6e2a2f816c50d"><g></g><path style="display: inline;" d="M476.146,383.938L438.27,32.254C436.385,14.786,420.479,0.5,402.913,0.5H109.086
		c-17.566,0-33.471,14.286-35.355,31.754L35.854,383.938c-1.876,17.467,10.956,31.75,28.522,31.75h383.249
		C465.19,415.688,478.022,401.404,476.146,383.938z M454.923,393.556c-1.214,1.355-3.469,2.969-7.299,2.969H64.375
		c-3.83,0-6.085-1.613-7.298-2.969s-2.582-3.766-2.169-7.569l37.877-351.68c0.835-7.798,8.46-14.641,16.301-14.641h293.827
		c7.841,0,15.467,6.843,16.301,14.641l37.878,351.68C457.505,389.79,456.137,392.2,454.923,393.556z M447.624,433.267H64.375
		c-8.116,0-15.939-1.459-22.85-4.093l16.584,59.764c3.443,12.406,20.639,22.563,38.205,22.563h319.371
		c17.566,0,34.762-10.156,38.204-22.563l16.585-59.764C463.563,431.808,455.74,433.267,447.624,433.267z M112.279,486.304
		c-8.817,0-15.965-7.147-15.965-15.965c0-8.821,7.147-15.974,15.965-15.974c8.822,0,15.974,7.152,15.974,15.974
		C128.253,479.156,121.101,486.304,112.279,486.304z M176.157,486.304c-8.822,0-15.969-7.147-15.969-15.965
		c0-8.821,7.147-15.974,15.969-15.974s15.965,7.152,15.965,15.974C192.123,479.156,184.979,486.304,176.157,486.304z
		 M156.573,159.476c0.831,0,1.665,0.009,2.513,0.03c0.848,0.017,1.704,0.047,2.569,0.086c0.86,0.043,1.734,0.09,2.616,0.15
		c0.882,0.056,1.773,0.129,2.677,0.206c0.899,0.078,1.825,0.177,2.775,0.298c0.951,0.12,1.932,0.258,2.939,0.413
		c1.007,0.154,2.04,0.331,3.103,0.524c1.063,0.198,2.156,0.409,3.279,0.637c1.114,0.241,2.173,0.513,3.184,0.818
		c1.011,0.31,1.971,0.649,2.875,1.023c0.908,0.379,1.76,0.792,2.561,1.239c0.8,0.448,1.549,0.93,2.247,1.45
		c0.693,0.521,1.295,1.067,1.807,1.645c0.512,0.576,0.934,1.183,1.265,1.815c0.332,0.633,0.568,1.3,0.719,1.992
		c0.15,0.689,0.211,1.412,0.181,2.161c-0.03,0.714-0.125,1.429-0.284,2.155c-0.159,0.728-0.387,1.459-0.68,2.199
		c-0.297,0.74-0.654,1.489-1.084,2.246c-0.426,0.762-0.925,1.527-1.489,2.302c-0.568,0.779-1.179,1.459-1.837,2.045
		c-0.663,0.585-1.369,1.075-2.126,1.467s-1.558,0.685-2.406,0.883c-0.848,0.197-1.743,0.297-2.681,0.297
		c-0.392,0-0.887-0.064-1.485-0.198s-1.304-0.327-2.113-0.59c-0.813-0.258-1.73-0.585-2.75-0.973
		c-1.02-0.392-2.147-0.843-3.378-1.359c-1.23-0.525-2.492-0.981-3.791-1.373c-1.295-0.392-2.629-0.719-3.998-0.981
		c-1.369-0.262-2.776-0.456-4.217-0.585c-1.442-0.133-2.922-0.193-4.441-0.193c-1.61,0-3.129,0.061-4.544,0.181
		c-1.42,0.12-2.746,0.301-3.968,0.542c-1.226,0.241-2.358,0.542-3.391,0.899c-1.033,0.357-1.967,0.774-2.806,1.252
		c-0.839,0.474-1.583,0.973-2.229,1.502s-1.192,1.089-1.644,1.67c-0.452,0.585-0.805,1.196-1.059,1.833
		c-0.254,0.642-0.409,1.304-0.465,2.001c-0.047,0.629,0,1.239,0.142,1.847c0.142,0.603,0.383,1.196,0.718,1.772
		c0.34,0.581,0.775,1.145,1.309,1.7c0.533,0.551,1.166,1.093,1.897,1.618c0.719,0.533,1.493,1.045,2.311,1.536
		c0.817,0.495,1.687,0.968,2.608,1.42c0.917,0.456,1.885,0.891,2.904,1.304c1.02,0.418,2.092,0.813,3.215,1.192
		c1.119,0.374,2.263,0.783,3.434,1.218c1.166,0.43,2.362,0.895,3.58,1.386c1.222,0.49,2.47,1.007,3.744,1.558
		c1.273,0.551,2.578,1.127,3.907,1.738c1.325,0.606,2.621,1.23,3.89,1.868c1.274,0.637,2.517,1.282,3.735,1.949
		c1.222,0.667,2.414,1.347,3.584,2.039c1.17,0.697,2.315,1.407,3.438,2.131c1.119,0.727,2.19,1.531,3.21,2.405
		c1.02,0.873,1.988,1.824,2.909,2.853c0.921,1.024,1.799,2.126,2.621,3.306c0.826,1.184,1.605,2.439,2.336,3.778
		c0.723,1.325,1.347,2.706,1.872,4.14c0.529,1.429,0.956,2.913,1.287,4.449c0.332,1.536,0.56,3.124,0.693,4.769
		c0.133,1.644,0.168,3.339,0.099,5.086c-0.121,3.056-0.525,5.956-1.213,8.692c-0.693,2.75-1.67,5.336-2.944,7.764
		c-1.273,2.427-2.835,4.694-4.69,6.79c-1.859,2.101-4.011,4.032-6.455,5.792c-2.449,1.773-5.078,3.322-7.884,4.656
		c-2.814,1.339-5.801,2.453-8.968,3.349c-3.167,0.891-6.511,1.562-10.026,2.009c-3.516,0.452-7.204,0.676-11.06,0.676
		c-3.339,0-6.563-0.159-9.665-0.469c-3.103-0.314-6.085-0.783-8.942-1.402c-2.862-0.624-5.595-1.399-8.207-2.328
		c-2.612-0.93-5.095-2.01-7.453-3.241c-2.354-1.239-4.394-2.513-6.115-3.821c-1.721-1.308-3.133-2.65-4.226-4.027
		c-1.089-1.377-1.868-2.789-2.337-4.234c-0.469-1.446-0.624-2.922-0.469-4.441c0.086-0.839,0.258-1.683,0.516-2.525
		c0.258-0.84,0.603-1.679,1.033-2.522c0.435-0.834,0.956-1.678,1.558-2.517c0.606-0.84,1.299-1.679,2.083-2.522
		c0.771-0.83,1.558-1.558,2.358-2.182c0.805-0.619,1.626-1.136,2.461-1.549c0.839-0.409,1.695-0.719,2.565-0.921
		c0.874-0.207,1.764-0.31,2.672-0.31c0.504,0,1.02,0.043,1.545,0.133c0.529,0.091,1.067,0.224,1.618,0.4
		c0.546,0.181,1.11,0.4,1.678,0.667c0.572,0.271,1.158,0.581,1.751,0.938c0.585,0.365,1.158,0.735,1.721,1.118
		c0.564,0.384,1.115,0.771,1.653,1.171c0.542,0.4,1.071,0.813,1.588,1.235c0.512,0.421,1.015,0.855,1.506,1.308
		c0.482,0.439,1.016,0.869,1.609,1.291s1.239,0.835,1.945,1.235c0.701,0.404,1.458,0.796,2.272,1.179
		c0.809,0.383,1.674,0.758,2.591,1.119c0.921,0.361,1.854,0.676,2.81,0.946c0.955,0.271,1.928,0.5,2.913,0.681
		c0.99,0.181,1.997,0.313,3.017,0.408c1.02,0.086,2.057,0.134,3.103,0.134c1.326,0,2.608-0.061,3.856-0.186
		c1.248-0.12,2.453-0.305,3.623-0.551c1.167-0.249,2.298-0.555,3.391-0.93c1.093-0.369,2.147-0.805,3.163-1.299
		c1.016-0.495,1.911-1.055,2.685-1.674c0.774-0.62,1.429-1.305,1.962-2.045c0.529-0.739,0.942-1.54,1.239-2.396
		c0.292-0.856,0.469-1.772,0.525-2.745c0.056-0.981-0.021-1.933-0.241-2.854c-0.22-0.921-0.572-1.808-1.067-2.668
		c-0.491-0.86-1.123-1.687-1.889-2.487c-0.762-0.801-1.666-1.566-2.703-2.307c-1.05-0.731-2.151-1.445-3.313-2.143
		c-1.157-0.697-2.371-1.382-3.645-2.044c-1.27-0.663-2.599-1.309-3.989-1.937c-1.386-0.629-2.832-1.239-4.338-1.834
		c-1.506-0.589-3.008-1.204-4.51-1.833c-1.506-0.632-3.008-1.277-4.51-1.944c-1.506-0.668-3.003-1.348-4.505-2.049
		s-3-1.416-4.497-2.151c-1.498-0.731-2.926-1.545-4.286-2.428c-1.355-0.886-2.642-1.846-3.855-2.883
		c-1.218-1.033-2.367-2.139-3.443-3.322c-1.076-1.184-2.083-2.436-3.025-3.761c-0.947-1.334-1.751-2.724-2.414-4.179
		c-0.663-1.454-1.179-2.965-1.558-4.535c-0.378-1.566-0.615-3.197-0.714-4.885c-0.099-1.683-0.06-3.425,0.121-5.224
		c0.288-2.922,0.861-5.646,1.717-8.181c0.852-2.526,1.988-4.863,3.404-7.01c1.411-2.144,3.098-4.097,5.069-5.87
		c1.962-1.769,4.209-3.352,6.73-4.755c2.513-1.398,5.138-2.621,7.862-3.666c2.724-1.042,5.547-1.911,8.481-2.604
		c2.931-0.693,5.969-1.214,9.114-1.558C149.959,159.647,153.212,159.476,156.573,159.476 M258.092,159.476
		c0.826,0,1.665,0.009,2.513,0.03c0.848,0.017,1.704,0.047,2.573,0.086c0.87,0.043,1.743,0.09,2.63,0.15
		c0.887,0.056,1.781,0.129,2.689,0.206c0.903,0.078,1.833,0.177,2.797,0.298c0.955,0.12,1.945,0.258,2.961,0.413
		c1.02,0.154,2.065,0.331,3.142,0.524c1.075,0.198,2.186,0.409,3.321,0.637c1.128,0.241,2.212,0.513,3.241,0.818
		c1.032,0.31,2.014,0.649,2.947,1.023c0.93,0.379,1.812,0.792,2.643,1.239c0.83,0.448,1.609,0.93,2.341,1.45
		c0.731,0.521,1.372,1.067,1.923,1.645c0.551,0.576,1.012,1.183,1.391,1.815c0.37,0.633,0.653,1.3,0.852,1.992
		c0.198,0.689,0.306,1.412,0.327,2.161c0.018,0.714-0.025,1.429-0.138,2.155c-0.112,0.728-0.293,1.459-0.533,2.199
		c-0.246,0.74-0.556,1.489-0.93,2.246c-0.379,0.762-0.826,1.527-1.334,2.302c-0.517,0.779-1.085,1.459-1.704,2.045
		c-0.62,0.585-1.291,1.075-2.022,1.467c-0.728,0.392-1.506,0.685-2.341,0.883c-0.835,0.197-1.726,0.297-2.668,0.297
		c-0.388,0-0.887-0.064-1.493-0.198c-0.607-0.134-1.33-0.327-2.156-0.59c-0.826-0.258-1.765-0.585-2.814-0.973
		c-1.046-0.392-2.203-0.843-3.469-1.359c-1.265-0.525-2.56-0.981-3.881-1.373c-1.325-0.392-2.686-0.719-4.071-0.981
		c-1.386-0.262-2.806-0.456-4.252-0.585c-1.454-0.133-2.935-0.193-4.453-0.193c-1.614,0-3.125,0.061-4.536,0.181
		s-2.724,0.301-3.929,0.542c-1.214,0.241-2.32,0.542-3.327,0.899c-1.011,0.357-1.915,0.774-2.724,1.252
		c-0.809,0.474-1.519,0.973-2.125,1.502c-0.611,0.529-1.124,1.089-1.532,1.67c-0.413,0.585-0.723,1.196-0.934,1.833
		c-0.211,0.642-0.323,1.304-0.332,2.001c-0.004,0.629,0.086,1.239,0.267,1.847c0.185,0.603,0.464,1.196,0.839,1.772
		c0.379,0.581,0.852,1.145,1.424,1.7c0.568,0.551,1.239,1.093,2.005,1.618c0.757,0.533,1.562,1.045,2.414,1.536
		c0.852,0.495,1.751,0.968,2.703,1.42c0.951,0.456,1.949,0.891,2.995,1.304c1.05,0.418,2.147,0.813,3.292,1.192
		c1.149,0.374,2.319,0.783,3.521,1.218c1.196,0.43,2.423,0.895,3.675,1.386c1.257,0.49,2.539,1.007,3.847,1.558
		c1.313,0.551,2.655,1.127,4.028,1.738c1.364,0.606,2.702,1.23,4.015,1.868c1.313,0.637,2.604,1.282,3.869,1.949
		c1.265,0.667,2.504,1.347,3.722,2.039c1.218,0.697,2.414,1.407,3.585,2.131c1.171,0.727,2.294,1.531,3.374,2.405
		c1.075,0.873,2.112,1.824,3.103,2.853c0.989,1.024,1.94,2.126,2.844,3.306c0.904,1.184,1.769,2.439,2.591,3.778
		c0.813,1.325,1.532,2.706,2.151,4.14c0.629,1.429,1.153,2.913,1.588,4.449s0.775,3.124,1.021,4.769
		c0.24,1.644,0.387,3.339,0.438,5.086c0.086,3.056-0.12,5.956-0.619,8.692c-0.508,2.75-1.313,5.336-2.419,7.764
		c-1.11,2.427-2.518,4.694-4.229,6.79c-1.718,2.101-3.74,4.032-6.063,5.792c-2.328,1.773-4.854,3.322-7.569,4.656
		c-2.725,1.339-5.633,2.453-8.74,3.349c-3.106,0.891-6.403,1.562-9.889,2.009c-3.485,0.452-7.161,0.676-11.017,0.676
		c-3.339,0-6.576-0.159-9.7-0.469c-3.124-0.314-6.136-0.783-9.037-1.402c-2.9-0.624-5.689-1.399-8.361-2.328
		c-2.672-0.93-5.229-2.01-7.673-3.241c-2.436-1.239-4.562-2.513-6.377-3.821c-1.807-1.308-3.305-2.65-4.493-4.027
		c-1.188-1.377-2.061-2.789-2.625-4.234c-0.568-1.446-0.826-2.922-0.774-4.441c0.03-0.839,0.146-1.683,0.344-2.525
		c0.202-0.84,0.491-1.679,0.869-2.522c0.375-0.834,0.835-1.678,1.386-2.517c0.551-0.84,1.188-1.679,1.911-2.522
		c0.714-0.83,1.45-1.558,2.212-2.182c0.762-0.619,1.549-1.136,2.358-1.549c0.809-0.409,1.644-0.719,2.5-0.921
		c0.856-0.207,1.743-0.31,2.651-0.31c0.503,0,1.02,0.043,1.553,0.133c0.534,0.091,1.08,0.224,1.644,0.4
		c0.56,0.181,1.136,0.4,1.726,0.667c0.589,0.271,1.196,0.581,1.816,0.938c0.607,0.365,1.209,0.735,1.794,1.118
		c0.589,0.384,1.166,0.771,1.734,1.171c0.568,0.4,1.123,0.813,1.665,1.235c0.547,0.421,1.076,0.855,1.597,1.308
		c0.512,0.439,1.08,0.869,1.7,1.291s1.295,0.835,2.027,1.235c0.731,0.404,1.515,0.796,2.354,1.179
		c0.835,0.383,1.726,0.758,2.668,1.119s1.902,0.676,2.875,0.946c0.973,0.271,1.958,0.5,2.961,0.681
		c0.998,0.181,2.014,0.313,3.042,0.408c1.024,0.086,2.062,0.134,3.111,0.134c1.326,0,2.604-0.061,3.843-0.186
		c1.235-0.12,2.432-0.305,3.585-0.551c1.153-0.249,2.259-0.555,3.326-0.93c1.067-0.369,2.096-0.805,3.077-1.299
		c0.98-0.495,1.842-1.055,2.573-1.674c0.731-0.62,1.338-1.305,1.82-2.045c0.486-0.739,0.843-1.54,1.08-2.396
		c0.236-0.856,0.349-1.772,0.34-2.745c-0.009-0.981-0.155-1.933-0.435-2.854c-0.284-0.921-0.697-1.808-1.248-2.668
		s-1.239-1.687-2.057-2.487c-0.818-0.801-1.773-1.566-2.862-2.307c-1.098-0.731-2.25-1.445-3.455-2.143s-2.471-1.382-3.788-2.044
		c-1.316-0.663-2.689-1.309-4.118-1.937c-1.433-0.629-2.917-1.239-4.462-1.834c-1.545-0.589-3.09-1.204-4.639-1.833
		c-1.545-0.632-3.094-1.277-4.639-1.944c-1.549-0.668-3.098-1.348-4.647-2.049c-1.545-0.701-3.09-1.416-4.639-2.151
		c-1.549-0.731-3.029-1.545-4.449-2.428c-1.416-0.886-2.767-1.846-4.054-2.883c-1.287-1.033-2.509-2.139-3.667-3.322
		s-2.25-2.436-3.279-3.761c-1.041-1.334-1.936-2.724-2.698-4.179c-0.762-1.454-1.381-2.965-1.868-4.535
		c-0.482-1.566-0.831-3.197-1.046-4.885c-0.211-1.683-0.288-3.425-0.232-5.224c0.095-2.922,0.482-5.646,1.162-8.181
		c0.684-2.526,1.661-4.863,2.926-7.01c1.265-2.144,2.823-4.097,4.673-5.87c1.846-1.769,3.98-3.352,6.407-4.755
		c2.423-1.398,4.962-2.621,7.617-3.666c2.65-1.042,5.417-1.911,8.305-2.604c2.883-0.693,5.887-1.214,9.007-1.558
		C251.49,159.647,254.73,159.476,258.092,159.476 M349.76,261.152l-4.622-78.874h17.205c2.9,0,5.465,0.344,7.693,1.024
		c2.229,0.684,4.123,1.708,5.681,3.076c1.563,1.369,2.793,3.086,3.688,5.146c0.895,2.07,1.458,4.488,1.682,7.26l3.624,44.5
		c0.241,2.948,0.073,5.539-0.508,7.764c-0.577,2.233-1.566,4.101-2.97,5.594c-1.402,1.502-3.219,2.63-5.447,3.378
		c-2.233,0.754-4.876,1.132-7.927,1.132H349.76 M360.814,160.422h-33.733c-0.95,0-1.858,0.048-2.72,0.138
		c-0.864,0.095-1.683,0.232-2.452,0.418c-0.771,0.181-1.498,0.413-2.178,0.692s-1.309,0.606-1.894,0.981
		c-0.585,0.365-1.102,0.748-1.536,1.153c-0.435,0.4-0.801,0.821-1.085,1.261c-0.288,0.438-0.494,0.895-0.632,1.368
		c-0.134,0.478-0.189,0.973-0.173,1.484l4.248,109.44c0.021,0.59,0.125,1.158,0.31,1.709s0.452,1.084,0.801,1.592
		c0.349,0.513,0.774,1.007,1.282,1.48s1.097,0.925,1.76,1.364c0.671,0.426,1.386,0.801,2.143,1.123
		c0.767,0.318,1.571,0.585,2.423,0.801c0.856,0.215,1.752,0.374,2.698,0.481c0.947,0.107,1.933,0.159,2.965,0.159h36.561
		c3.852,0,7.501-0.219,10.935-0.662c3.43-0.443,6.653-1.102,9.657-1.984c3.004-0.878,5.792-1.975,8.365-3.292
		c2.564-1.313,4.914-2.836,7.045-4.578c2.121-1.752,3.933-3.748,5.431-5.986c1.493-2.229,2.681-4.694,3.55-7.397
		c0.869-2.689,1.429-5.615,1.679-8.774c0.249-3.141,0.188-6.511-0.177-10.108l-4.506-44.5c-0.34-3.378-0.93-6.52-1.769-9.428
		c-0.83-2.896-1.91-5.561-3.236-7.996c-1.316-2.427-2.879-4.63-4.682-6.609c-1.799-1.976-3.843-3.727-6.123-5.263
		c-2.276-1.515-4.713-2.841-7.308-3.977c-2.595-1.132-5.345-2.074-8.262-2.827c-2.909-0.753-5.978-1.321-9.209-1.695
		C367.765,160.611,364.369,160.422,360.814,160.422"></path></g></svg>