<?xml version="1.0" encoding="iso-8859-1"?>
<!DOCTYPE svg PUBLIC "-//W3C//DTD SVG 1.1//EN" "http://www.w3.org/Graphics/SVG/1.1/DTD/svg11.dtd">
<svg 
 version="1.1" xmlns="http://www.w3.org/2000/svg" xmlns:xlink="http://www.w3.org/1999/xlink" x="0px" y="0px" width="512px"
	 height="512px" viewBox="0 0 512 512" style="enable-background:new 0 0 512 512;" xml:space="preserve"
><g id="afcae5a789ccd549f9c6e2a2f816229d"><g></g><path style="display: inline; fill-rule: evenodd; clip-rule: evenodd;" d="M487.346,267.55c-8.669-9.054-17.9-25.657-24.597-45.735
		c-10.357-31.061-10.884-59.163-1.618-65.139c-17.461-32.259-38.406-53.076-45.596-59.708c-6.63-7.191-27.447-28.132-59.709-45.595
		c-5.977,9.262-34.082,8.732-65.14-1.622c-20.078-6.694-36.685-15.927-45.73-24.596c-127.763,5.396-199.825,88.432-199.825,88.432
		s-34.591,33.491-43.338,60.01c-6.289,19.076,12.433,33.683,12.433,33.683s8.459,11.188,37.86-0.316
		c29.224-11.441,68.591-41.103,103.743-49.451c33.515-7.961,62.18,1.365,62.18,1.365s8.656,28.034,26.676,35.676
		c17.468,7.413,41.678-7.188,41.678-7.188s7.308,0.824,13.425,4.332c4.546,2.604,18.413,16.474,21.02,21.018
		c3.502,6.116,4.328,13.42,4.328,13.42s-14.604,24.213-7.189,41.684c7.646,18.017,35.682,26.674,35.682,26.674
		s9.326,28.664,1.36,62.178c-8.353,35.151-38.012,74.52-49.446,103.744c-11.509,29.404-0.321,37.854-0.321,37.854
		s14.608,18.727,33.68,12.438c26.527-8.747,60.014-43.339,60.014-43.339S481.949,395.313,487.346,267.55z M240.73,168.507
		c-12.216-12.222-12.216-32.033,0-44.257c12.224-12.22,32.036-12.22,44.26,0c12.22,12.224,12.22,32.035,0,44.257
		C272.766,180.727,252.954,180.727,240.73,168.507z M366.126,146.377c-8.15-8.146-8.15-21.354,0-29.501
		c8.146-8.146,21.353-8.146,29.499,0c8.151,8.146,8.151,21.354,0,29.501C387.479,154.528,374.272,154.528,366.126,146.377z
		 M343.997,271.767c-12.225-12.22-12.225-32.034,0-44.253c12.22-12.222,32.035-12.222,44.251,0c12.224,12.22,12.224,32.034,0,44.253
		C376.032,283.987,356.217,283.987,343.997,271.767z M347.654,40.001c-2.967,8.923-27.078,8.923-53.844,0.002
		c-26.766-8.924-46.052-23.388-43.076-32.311c2.972-8.923,27.079-8.923,53.844,0C331.345,16.615,350.63,31.079,347.654,40.001z
		 M504.809,207.92c8.92,26.764,8.92,50.877,0,53.847c-8.923,2.976-23.387-16.31-32.311-43.076
		c-8.919-26.766-8.919-50.875,0.005-53.844C481.422,161.867,495.886,181.154,504.809,207.92z"></path></g></svg>