<?xml version="1.0" encoding="iso-8859-1"?>
<!DOCTYPE svg PUBLIC "-//W3C//DTD SVG 1.1//EN" "http://www.w3.org/Graphics/SVG/1.1/DTD/svg11.dtd">
<svg 
 version="1.1" xmlns="http://www.w3.org/2000/svg" xmlns:xlink="http://www.w3.org/1999/xlink" x="0px" y="0px" width="512px"
	 height="512px" viewBox="0 0 512 512" style="enable-background:new 0 0 512 512;" xml:space="preserve"
><g id="afcae5a789ccd549f9c6e2a2f81bce1a"><g></g><g fill="#1e4072"><path style="display: inline; fill-rule: evenodd; clip-rule: evenodd;" d="M499.245,35.725C511.824,15.622,511.5,0.502,511.5,0.502
		s-15.12-0.329-35.227,12.251c-26.199,16.393-71.378,56.335-96.453,74.799c-18.036,13.278-20.972,8.479-20.972,8.479
		s-1.768-4.375-1.764-9.128c0-4.362,1.771-9.136,1.771-9.136s-1.322-3.51-4.94-3.165c-4.154,0.396-10.675,4.649-10.675,4.649
		s-18.31,15.187-35.526,30.994c-18.68,17.154-36.387,35.036-36.387,35.036l-31.53,10.916L91.629,129.475l-44.504,43.918
		l70.633,120.744l-23.275,8.559l-70.105-11.748L0.499,315.412l52.389,87.762l68.666-49.823l-8.558,22.685l11.486,11.485
		l11.482,11.482l22.685-8.559l-49.819,68.67l87.758,52.385l24.464-23.878l-11.743-70.101l8.558-23.279l120.739,70.633l43.919-44.505
		L355.8,272.204l10.917-31.53c0,0,17.882-17.707,35.035-36.391c15.807-17.216,30.994-35.526,30.994-35.526s4.258-6.521,4.648-10.671
		c0.346-3.618-3.168-4.944-3.168-4.944s-4.767,1.771-9.133,1.771c-4.749,0.004-9.128-1.759-9.128-1.759s-4.799-2.94,8.483-20.976
		C442.909,107.102,482.852,61.923,499.245,35.725z M348.594,185.973c-15.166,8.878-24.885,2.32-24.885,2.32
		s-6.563-9.723,2.32-24.885c10.251-17.511,36.129-40.803,36.129-40.803s3.436,4.163,8.409,6.358
		c4.441,1.958,10.487,1.983,10.487,1.983s0.021,6.042,1.979,10.488c2.196,4.97,6.358,8.404,6.358,8.404
		S366.101,175.718,348.594,185.973z M418.673,109.905c-6.911,15.312-24.318,36.175-24.318,36.175s-5.706-2.158-7.977-7.506
		c-1.946-4.566-0.507-12.442-0.507-12.442s-7.877,1.438-12.451-0.507c-5.34-2.271-7.502-7.976-7.502-7.976
		s20.863-17.408,36.175-24.323c8.396-3.789,15.661,0.919,15.661,0.919S422.466,101.508,418.673,109.905z"></path></g></g></svg>